<?xml version="1.0" encoding="utf-8"?>
<!-- Svg Vector Icons : http://www.onlinewebfonts.com/icon -->
<!DOCTYPE svg PUBLIC "-//W3C//DTD SVG 1.1//EN" "http://www.w3.org/Graphics/SVG/1.1/DTD/svg11.dtd">
<svg version="1.1" xmlns="http://www.w3.org/2000/svg" xmlns:xlink="http://www.w3.org/1999/xlink" x="0px" y="0px" viewBox="0 0 1000 1000" xml:space="preserve">
<style type="text/css">
	.st0{fill:#34456e;}
</style>
<metadata> Svg Vector Icons : http://www.onlinewebfonts.com/icon </metadata>
<g><path d="M150.1,657.5H79.8c-38.4,0-69.8-31.3-69.8-69.6V132.4C10,94,41.3,62.7,79.8,62.7h665.6c38.4,0,69.8,31.3,69.8,69.6v455.4c0,38.4-31.3,69.6-69.8,69.6H324.8L150.1,832.2V657.5z M89.6,111.9c-9.2,0-20.3,0.4-24.8,4c-2,1.6-4.8,5.7-4.8,20.6v447.8c0,15.1,2.7,19,4.8,20.7c4.4,3.5,15.5,4,24.7,4h109.2v107.8l110.1-109h420.6c11.5,0,32.9-12.4,32.9-23.4V135.3c0-9.6-1.3-15.4-4.3-18.3c-3.5-3.4-11-5.1-22.8-5.1H89.6z"/><path d="M675.3,762.7H360.4v-51.2H692l105.6,104.7l0.1-106.4l120.7-0.3c5.4-0.5,11.9-2.3,13.6-3.8l0.1-0.1c4.2-5.3,4.3-10.8,4.3-11.6v-0.4v-0.1l0.9-457.9v-0.4c0.1-1.6-0.3-5.7-1.8-7.8l-0.5-0.7l-0.4-0.7c-3.5-6.6-12-7.1-14.5-7.1c-0.3,0-0.4,0-0.4,0h-0.3h-0.3l-68.6,0.7v-51.7h69.6c38.4,0,69.6,31.3,69.6,69.6v455.4c0,38.4-31.3,69.8-69.6,69.8h-70.5v174.6L675.3,762.7z"/><path d="M192.3,345.6c0,11.5,4.7,22.9,12.8,31c8.1,8.1,19.5,12.8,31,12.8c11.5,0,22.9-4.7,31-12.8c8.1-8.1,12.8-19.5,12.8-31s-4.7-22.9-12.8-31c-8.1-8.1-19.5-12.8-31-12.8c-11.5,0-22.9,4.7-31,12.8C197,322.7,192.3,334,192.3,345.6L192.3,345.6z"/><path d="M367.4,345.6c0,11.5,4.7,22.9,12.8,31c8.1,8.1,19.5,12.8,31,12.8c11.5,0,22.9-4.7,31-12.8c8.1-8.1,12.8-19.5,12.8-31s-4.7-22.9-12.8-31c-8.1-8.1-19.5-12.8-31-12.8c-11.5,0-22.9,4.7-31,12.8C372.1,322.7,367.4,334,367.4,345.6L367.4,345.6z"/><path d="M542.5,346.2c0,11.4,4.7,22.9,12.8,31c8.1,8.1,19.5,12.8,31,12.8c11.4,0,22.9-4.7,31-12.8c8.1-8.1,12.8-19.5,12.8-31c0-11.5-4.7-22.9-12.8-31c-8.1-8.1-19.5-12.8-31-12.8c-11.5,0-22.9,4.7-31,12.8C547.2,323.4,542.5,334.7,542.5,346.2L542.5,346.2z"/></g>
</svg>